<svg width="260" height="260" viewBox="0 0 260 260" fill="none" xmlns="http://www.w3.org/2000/svg">
<path d="M234.489 134.609L254.309 140.589L253.174 144.404L236.132 146.597L249.209 157.725L248.114 161.403L228.293 155.423L229.305 152.023L243.11 156.188L230.908 146.639L231.841 143.503L247.282 142.173L233.477 138.008L234.489 134.609Z" fill="white"/>
<path d="M235.494 172.512C231.42 169.944 228.254 170.475 225.996 174.106C223.794 177.647 224.731 180.702 228.805 183.27C232.814 185.796 235.92 185.289 238.122 181.748C240.379 178.117 239.504 175.038 235.494 172.512ZM237.523 169.084C243.459 172.826 244.598 177.639 240.939 183.524C237.335 189.319 232.566 190.346 226.63 186.604C220.726 182.884 219.576 178.126 223.179 172.331C226.675 166.708 231.457 165.626 237.523 169.084Z" fill="white"/>
<path d="M205.813 198.359L216.069 209.144L212.85 191.577L215.508 189.015L229.774 204.018L227.116 206.58L216.73 195.658L220.079 213.362L217.421 215.924L203.155 200.921L205.813 198.359Z" fill="white"/>
<path d="M189.971 214.567L198.762 233.311L190.393 237.289C186.575 239.104 183.841 238.251 182.189 234.729C180.398 230.911 181.925 227.358 186.769 224.072L188.717 226.929C185.845 228.989 184.86 230.98 185.762 232.903C186.491 234.458 187.632 234.867 189.183 234.13L193.864 231.904L186.506 216.214L189.971 214.567Z" fill="white"/>
<path d="M168.269 227.016L172.145 226.318L167.117 248.259L163.057 248.991L150.601 230.198L154.662 229.466L157.972 234.607L164.74 233.389L164.026 236.901L159.922 237.64L164.488 244.717L168.269 227.016Z" fill="white"/>
<path d="M128.706 253.045L128.846 249.718L139.477 250.173L140.068 236.185L135.338 235.983C133.332 235.897 132.295 236.669 132.226 238.299C132.149 240.112 133.374 241.072 135.901 241.18L137.463 241.247L137.323 244.574L135.63 244.502C130.635 244.288 128.221 242.219 128.386 238.294C128.554 234.312 130.837 232.414 135.234 232.602L144.057 232.98L143.185 253.664L128.706 253.045Z" fill="white"/>
<path d="M114.839 243.477C116.3 238.888 114.995 235.937 110.926 234.624C106.958 233.344 104.243 234.999 102.783 239.588C101.346 244.104 102.611 247.002 106.58 248.282C110.649 249.595 113.402 247.993 114.839 243.477ZM118.655 244.616C116.527 251.303 112.165 253.582 105.57 251.455C99.0757 249.36 96.8924 244.97 99.0201 238.283C101.136 231.634 105.441 229.356 111.936 231.451C118.237 233.483 120.477 237.872 118.655 244.616Z" fill="white"/>
<path d="M73.2537 238.97L74.843 236.044L80.0429 238.907L88.3349 223.64L91.6958 225.49L83.4038 240.757L88.6037 243.62L87.0145 246.546L73.2537 238.97Z" fill="white"/>
<path d="M58.7514 232.111L70.9192 219.771L66.7413 215.596C65.6627 214.518 64.5508 214.559 63.4055 215.721C62.1315 217.013 62.2181 218.382 63.6653 219.829L65.5904 221.753L63.2524 224.124L61.2249 222.097C57.955 218.829 57.6991 215.796 60.4573 212.999C63.2561 210.161 66.0822 210.168 68.9357 213.02L76.0012 220.082L61.465 234.823L58.7514 232.111ZM63.4062 207.493L48.87 222.235L46.1564 219.522L60.6927 204.781L63.4062 207.493Z" fill="white"/>
<path d="M41.2667 181.394L42.8366 185.21L19.7349 183.471L18.1651 179.655L41.2667 181.394Z" fill="white"/>
<path d="M33.3232 163.906L34.1527 167.948L11.7734 161.882L10.9439 157.84L33.3232 163.906Z" fill="white"/>
<path d="M25.4475 124.262L5.69631 118.056L6.87507 114.253L23.94 112.255L10.99 100.978L12.1259 97.3132L31.8771 103.519L30.8269 106.907L17.0701 102.585L29.1638 112.272L28.1951 115.398L12.7409 116.551L26.4977 120.874L25.4475 124.262Z" fill="white"/>
<path d="M24.9265 86.1061C28.9628 88.7338 32.1363 88.2488 34.4469 84.6511C36.7002 81.1428 35.8087 78.0748 31.7724 75.4472C27.8008 72.8616 24.6884 73.323 22.4351 76.8313C20.1245 80.4289 20.955 83.5205 24.9265 86.1061ZM22.8478 89.5034C16.9673 85.6751 15.8995 80.8455 19.6445 75.0146C23.3321 69.273 28.1162 68.3163 33.9967 72.1446C39.8449 75.9519 40.9251 80.7263 37.2375 86.4679C33.6594 92.0389 28.8629 93.0508 22.8478 89.5034Z" fill="white"/>
<path d="M54.6273 61.0061L44.4898 50.1095L47.5175 67.7107L44.8315 70.2435L30.7298 55.0857L33.4157 52.5529L43.6814 63.5873L40.5255 45.8483L43.2114 43.3155L57.3132 58.4733L54.6273 61.0061Z" fill="white"/>
<path d="M70.7018 44.8444L62.1201 26.0037L70.5325 22.1198C74.3706 20.3477 77.0959 21.2315 78.7082 24.7713C80.4566 28.6097 78.8903 32.1447 74.0094 35.3762L72.0936 32.4974C74.9882 30.47 75.9954 28.4901 75.1152 26.5577C74.4031 24.9943 73.2671 24.5726 71.7073 25.2928L67.0016 27.4654L74.1851 43.2362L70.7018 44.8444Z" fill="white"/>
<path d="M92.6111 32.5765L88.7277 33.2296L94.0053 11.3482L98.0743 10.6639L110.315 29.5991L106.246 30.2834L102.994 25.1047L96.2128 26.2452L96.967 22.7417L101.079 22.0502L96.5939 14.9208L92.6111 32.5765Z" fill="white"/>
<path d="M132.554 6.98138L132.375 10.3065L121.75 9.72801L120.999 23.7078L125.726 23.9651C127.731 24.0743 128.777 23.3144 128.864 21.6856C128.962 19.8737 127.748 18.899 125.223 18.7615L123.662 18.6765L123.84 15.3515L125.532 15.4435C130.524 15.7153 132.915 17.8125 132.704 21.7352C132.49 25.7156 130.186 27.5862 125.791 27.347L116.973 26.8669L118.083 6.19359L132.554 6.98138Z" fill="white"/>
<path d="M145.79 16.5276C144.278 21.1004 145.549 24.0661 149.603 25.4249C153.556 26.7499 156.289 25.1261 157.801 20.5533C159.289 16.0539 158.056 13.1416 154.103 11.8166C150.048 10.4579 147.278 12.0282 145.79 16.5276ZM141.988 15.3449C144.19 8.68279 148.577 6.45285 155.148 8.65509C161.618 10.8236 163.752 15.2389 161.549 21.901C159.358 28.5264 155.028 30.7549 148.558 28.5864C142.28 26.4823 140.09 22.0685 141.988 15.3449Z" fill="white"/>
<path d="M187.664 21.5784L186.042 24.4868L180.874 21.5664L172.414 36.7407L169.074 34.8532L177.534 19.6789L172.366 16.7585L173.988 13.8501L187.664 21.5784Z" fill="white"/>
<path d="M202.449 28.7813L190.103 40.9428L194.22 45.1789C195.283 46.2725 196.395 46.2469 197.557 45.1022C198.85 43.8289 198.783 42.4585 197.357 40.9911L195.46 39.0392L197.832 36.7024L199.83 38.7581C203.052 42.0736 203.264 45.1097 200.465 47.8664C197.626 50.6638 194.8 50.6159 191.988 47.7227L185.026 40.5588L199.775 26.03L202.449 28.7813ZM197.437 53.3292L212.186 38.8003L214.859 41.5517L200.111 56.0805L197.437 53.3292Z" fill="white"/>
<path d="M219.329 79.8202L217.817 75.9814L240.891 78.0669L242.404 81.9057L219.329 79.8202Z" fill="white"/>
<path d="M226.926 97.0903L226.143 93.0392L248.452 99.3622L249.236 103.413L226.926 97.0903Z" fill="white"/>
</svg>
