<svg width="1900" height="2939" viewBox="0 0 1900 2939" fill="none" xmlns="http://www.w3.org/2000/svg">
<g filter="url(#filter0_f_36_30)">
<g filter="url(#filter1_f_36_30)">
<path d="M233.416 -16.8109C-42.3556 -9.21095 142.45 308.169 86.9122 378.835V1155.34C86.9122 1167.34 200.093 1198.54 652.818 1227.34C1218.72 1263.34 1474.39 1119.34 1454.28 902.836C1434.17 686.336 1718.56 716.189 1524.66 533.689C1330.76 351.189 1626.64 563.189 1869.37 430.689C2112.11 298.189 1722.87 168.189 1641 41.189C1559.13 -85.811 578.13 -26.3109 233.416 -16.8109Z" fill="#424242"/>
</g>
<path d="M994.12 57.9827C1012.5 -131.217 370.762 81.816 47.5922 211.983V1078.48C202.714 1080.32 609.189 1053.08 994.12 929.483C1475.28 774.983 695.368 711.983 703.986 631.983C712.603 551.983 1664.88 421.983 1604.55 368.983C1544.23 315.983 1551.41 331.483 849.053 368.983C146.698 406.483 971.139 294.483 994.12 57.9827Z" fill="url(#paint0_radial_36_30)"/>
<path d="M872.639 554.586C809.656 459.368 559.132 833.47 441.743 1032.42L812.419 1478.87C893.409 1413.05 1074.19 1126.96 1226.06 904.492C1415.9 626.412 1722.99 529.383 1696.79 488.758C1670.6 448.134 1359.29 434.323 1307.76 435.787C1256.23 437.251 1509 64.3069 1159.84 383.446C810.682 702.585 951.368 673.609 872.639 554.586Z" fill="url(#paint1_linear_36_30)"/>
<path d="M278.598 2174.43C242.242 2284.45 -401.267 1766.59 -718.477 1493.91L-428.999 991.008C-257.493 1088.46 217.568 1482.63 604.809 1791.08C1088.86 2176.64 1638.07 2352.57 1623.62 2399.62C1609.18 2446.68 1126.76 2410.71 1044.41 2399.99C962.071 2389.27 1608.36 2906.05 845.523 2441C82.6862 1975.94 324.043 2036.9 278.598 2174.43Z" fill="url(#paint2_linear_36_30)"/>
<path d="M862.8 758.1C876.412 586.267 401.272 779.745 162 897.963V1776.52C276.85 1778.18 631.063 1619.77 916.062 1507.52C1272.31 1367.2 1600.55 1551.17 1606.93 1478.52C1613.31 1405.86 1359.42 1088.69 1314.76 1040.55C1270.09 992.417 1746.32 802.46 1226.31 836.517C706.288 870.575 845.785 972.89 862.8 758.1Z" fill="#9E9E9E"/>
<path d="M1918.53 651.962C1969.41 597.014 1562.88 429.571 1353.26 352.718L1146.01 668.366C1232.84 726.241 1539.25 845.976 1782.2 947.777C2085.88 1075.03 2291.78 1304.82 2313.77 1281.9C2335.75 1258.98 2217.74 1018.41 2195.18 978.837C2172.61 939.269 2579.13 1108.52 2176.13 861.42C1773.12 614.319 1854.94 720.647 1918.53 651.962Z" fill="black"/>
<path d="M1180.07 2421.19C1421.61 2554.47 1423.26 2187.21 1506.96 2154.46L1900.69 1485.19C1875.5 672.19 1468 365.752 1176 1331.69C971.636 2007.73 686.562 812.68 594.114 1009.48C501.666 1206.28 271.687 1036.34 346.273 1291.96C420.859 1547.58 273.336 1214.83 -3.06683 1205.95C-279.469 1197.07 -9.89854 1506.49 -3.73156 1657.46C2.43541 1808.44 878.137 2254.58 1180.07 2421.19Z" fill="#424242"/>
</g>
<defs>
<filter id="filter0_f_36_30" x="-1118.48" y="-439" width="3873.64" height="3474.4" filterUnits="userSpaceOnUse" color-interpolation-filters="sRGB">
<feFlood flood-opacity="0" result="BackgroundImageFix"/>
<feBlend mode="normal" in="SourceGraphic" in2="BackgroundImageFix" result="shape"/>
<feGaussianBlur stdDeviation="200" result="effect1_foregroundBlur_36_30"/>
</filter>
<filter id="filter1_f_36_30" x="-64.0001" y="-180" width="2153" height="1553.85" filterUnits="userSpaceOnUse" color-interpolation-filters="sRGB">
<feFlood flood-opacity="0" result="BackgroundImageFix"/>
<feBlend mode="normal" in="SourceGraphic" in2="BackgroundImageFix" result="shape"/>
<feGaussianBlur stdDeviation="70.5" result="effect1_foregroundBlur_36_30"/>
</filter>
<radialGradient id="paint0_radial_36_30" cx="0" cy="0" r="1" gradientUnits="userSpaceOnUse" gradientTransform="translate(742.092 531) rotate(-159.615) scale(567.008 807.224)">
<stop stop-color="#757575"/>
<stop offset="1"/>
</radialGradient>
<linearGradient id="paint1_linear_36_30" x1="909.5" y1="805" x2="1174" y2="506" gradientUnits="userSpaceOnUse">
<stop/>
<stop offset="1" stop-color="#7A7A7A" stop-opacity="0"/>
</linearGradient>
<linearGradient id="paint2_linear_36_30" x1="128.898" y1="1762.61" x2="1742.4" y2="3467.05" gradientUnits="userSpaceOnUse">
<stop stop-color="white"/>
<stop offset="1" stop-color="#7A7A7A" stop-opacity="0"/>
<stop offset="1" stop-color="#4B4949"/>
</linearGradient>
</defs>
</svg>
