<svg width="101" height="101" viewBox="0 0 101 101" fill="none" xmlns="http://www.w3.org/2000/svg">
<g filter="url(#filter0_d_40_156)">
<path d="M60.7749 26.7568H39.5781C38.4004 26.7568 37.2342 26.99 36.1462 27.4429C35.0581 27.8959 34.0695 28.5599 33.2367 29.3969C32.404 30.234 31.7434 31.2277 31.2927 32.3213C30.842 33.415 30.6101 34.5871 30.6101 35.7709V57.0765C30.6101 59.4672 31.5549 61.76 33.2368 63.4504C34.0695 64.2875 35.0581 64.9514 36.1462 65.4044C37.2342 65.8574 38.4004 66.0906 39.5781 66.0906H60.7749C63.1533 66.0905 65.4343 65.1408 67.1161 63.4504C68.7979 61.7599 69.7427 59.4672 69.7427 57.0765V35.7709C69.7427 34.5871 69.5108 33.415 69.0601 32.3214C68.6094 31.2277 67.9489 30.234 67.1161 29.397C66.2834 28.56 65.2948 27.896 64.2068 27.443C63.1187 26.99 61.9526 26.7568 60.7749 26.7568ZM50.1765 58.8232C47.7366 58.8232 45.3516 58.096 43.3229 56.7335C41.2942 55.371 39.7131 53.4345 38.7794 51.1688C37.8457 48.9031 37.6014 46.41 38.0774 44.0047C38.5534 41.5994 39.7283 39.39 41.4535 37.6559C43.1787 35.9218 45.3768 34.7409 47.7698 34.2624C50.1628 33.784 52.6432 34.0296 54.8973 34.9681C57.1515 35.9065 59.0781 37.4958 60.4336 39.5349C61.7891 41.574 62.5126 43.9713 62.5126 46.4237C62.5126 48.052 62.1935 49.6644 61.5736 51.1688C60.9537 52.6732 60.045 54.0401 58.8995 55.1915C57.7539 56.3429 56.394 57.2562 54.8973 57.8794C53.4006 58.5025 51.7965 58.8232 50.1765 58.8232V58.8232ZM63.0269 36.5572C62.4464 36.5572 61.879 36.3842 61.3963 36.0601C60.9136 35.736 60.5374 35.2753 60.3153 34.7362C60.0931 34.1972 60.0349 33.604 60.1482 33.0318C60.2614 32.4595 60.5409 31.9339 60.9513 31.5213C61.3618 31.1087 61.8847 30.8278 62.4541 30.7139C63.0234 30.6001 63.6135 30.6585 64.1498 30.8818C64.6861 31.105 65.1445 31.4831 65.467 31.9683C65.7895 32.4534 65.9616 33.0237 65.9616 33.6072C65.9616 34.3896 65.6524 35.1399 65.1021 35.6931C64.5517 36.2463 63.8052 36.5571 63.0269 36.5572V36.5572Z" fill="#8A0000"/>
<path d="M50.1764 38.3638C48.5905 38.3638 47.0401 38.8365 45.7215 39.7221C44.4028 40.6077 43.375 41.8664 42.7681 43.3392C42.1612 44.8119 42.0024 46.4324 42.3118 47.9958C42.6212 49.5593 43.3849 50.9954 44.5063 52.1225C45.6278 53.2497 47.0566 54.0173 48.612 54.3283C50.1675 54.6393 51.7798 54.4797 53.245 53.8696C54.7102 53.2596 55.9626 52.2266 56.8437 50.9012C57.7248 49.5758 58.1951 48.0175 58.1951 46.4235C58.1951 44.2859 57.3502 42.2359 55.8465 40.7244C54.3427 39.2129 52.3031 38.3638 50.1764 38.3638V38.3638Z" fill="#8A0000"/>
<path d="M50.1765 0.0102539C24.6739 0.0102539 4 20.7902 4 46.4236C4 72.057 24.6739 92.8369 50.1765 92.8369C75.679 92.8369 96.3529 72.057 96.3529 46.4236C96.3529 20.7902 75.679 0.0102539 50.1765 0.0102539ZM74.2266 56.6672C74.2265 60.3616 72.7663 63.9046 70.1673 66.517C67.5683 69.1293 64.0433 70.597 60.3677 70.5971H39.9852C36.3096 70.597 32.7846 69.1293 30.1855 66.517C27.5865 63.9046 26.1263 60.3616 26.1261 56.6672V36.18C26.1262 32.4856 27.5864 28.9425 30.1855 26.3301C32.7845 23.7178 36.3096 22.2501 39.9852 22.25H60.3677C64.0433 22.2502 67.5683 23.7178 70.1673 26.3302C72.7663 28.9425 74.2265 32.4856 74.2266 36.18V56.6672Z" fill="#8A0000"/>
</g>
<defs>
<filter id="filter0_d_40_156" x="0" y="0.0102539" width="100.353" height="100.827" filterUnits="userSpaceOnUse" color-interpolation-filters="sRGB">
<feFlood flood-opacity="0" result="BackgroundImageFix"/>
<feColorMatrix in="SourceAlpha" type="matrix" values="0 0 0 0 0 0 0 0 0 0 0 0 0 0 0 0 0 0 127 0" result="hardAlpha"/>
<feOffset dy="4"/>
<feGaussianBlur stdDeviation="2"/>
<feComposite in2="hardAlpha" operator="out"/>
<feColorMatrix type="matrix" values="0 0 0 0 0 0 0 0 0 0 0 0 0 0 0 0 0 0 0.25 0"/>
<feBlend mode="normal" in2="BackgroundImageFix" result="effect1_dropShadow_40_156"/>
<feBlend mode="normal" in="SourceGraphic" in2="effect1_dropShadow_40_156" result="shape"/>
</filter>
</defs>
</svg>
