<svg width="100" height="101" viewBox="0 0 100 101" fill="none" xmlns="http://www.w3.org/2000/svg">
<g filter="url(#filter0_d_40_160)">
<path d="M50 0.0102539C24.5949 0.0102539 4 20.7108 4 46.2462C4 71.7817 24.5949 92.4822 50 92.4822C75.4051 92.4822 96 71.7817 96 46.2462C96 20.7108 75.4051 0.0102539 50 0.0102539ZM73.909 29.2574L65.739 68.4612C65.6402 68.9353 65.4243 69.3769 65.1114 69.7454C64.7984 70.1138 64.3984 70.3973 63.948 70.5698C63.4976 70.7423 63.0113 70.7983 62.5337 70.7326C62.0562 70.6669 61.6027 70.4816 61.215 70.1937L49.3312 61.369L42.1315 68.196C42.0372 68.2854 41.9262 68.355 41.8049 68.4008C41.6836 68.4465 41.5545 68.4676 41.425 68.4626C41.2955 68.4577 41.1683 68.4269 41.0509 68.372C40.9334 68.3171 40.8279 68.2392 40.7407 68.1429L40.586 67.9721L41.837 55.8035L64.3849 35.0965C64.4964 34.9943 64.5657 34.8537 64.5792 34.7026C64.5927 34.5515 64.5494 34.4008 64.4578 34.2803C64.3662 34.1597 64.2329 34.0781 64.0843 34.0514C63.9358 34.0247 63.7826 34.055 63.6552 34.1362L34.8191 52.4807L22.4 48.2884C22.0698 48.1769 21.782 47.9654 21.5761 47.683C21.3702 47.4005 21.2563 47.061 21.25 46.7109C21.2437 46.3608 21.3453 46.0173 21.5409 45.7276C21.7365 45.4379 22.0165 45.2161 22.3425 45.0927L70.9336 26.6942C71.3084 26.5524 71.7143 26.5144 72.1087 26.5843C72.5031 26.6541 72.8716 26.8291 73.1757 27.0911C73.4798 27.353 73.7083 27.6923 73.8373 28.0734C73.9663 28.4545 73.9911 28.8634 73.909 29.2574Z" fill="#8A0000"/>
</g>
<defs>
<filter id="filter0_d_40_160" x="0" y="0.0102539" width="100" height="100.472" filterUnits="userSpaceOnUse" color-interpolation-filters="sRGB">
<feFlood flood-opacity="0" result="BackgroundImageFix"/>
<feColorMatrix in="SourceAlpha" type="matrix" values="0 0 0 0 0 0 0 0 0 0 0 0 0 0 0 0 0 0 127 0" result="hardAlpha"/>
<feOffset dy="4"/>
<feGaussianBlur stdDeviation="2"/>
<feComposite in2="hardAlpha" operator="out"/>
<feColorMatrix type="matrix" values="0 0 0 0 0 0 0 0 0 0 0 0 0 0 0 0 0 0 0.25 0"/>
<feBlend mode="normal" in2="BackgroundImageFix" result="effect1_dropShadow_40_160"/>
<feBlend mode="normal" in="SourceGraphic" in2="effect1_dropShadow_40_160" result="shape"/>
</filter>
</defs>
</svg>
