<svg width="100" height="101" viewBox="0 0 100 101" fill="none" xmlns="http://www.w3.org/2000/svg">
<g filter="url(#filter0_d_40_155)">
<path d="M50 0C24.5949 0 4 20.7005 4 46.2358C4 71.7712 24.5949 92.4717 50 92.4717C75.4051 92.4717 96 71.7712 96 46.2358C96 20.7005 75.4051 0 50 0ZM74.5027 61.9307H68.6656C68.0334 61.9315 67.4091 61.7889 66.8393 61.5138C66.2694 61.2386 65.7686 60.8379 65.3741 60.3414C63.6235 58.1324 60.175 54.2155 56.5541 52.5331C56.3444 52.4345 56.1133 52.3905 55.8822 52.4054C55.6511 52.4202 55.4275 52.4934 55.232 52.6181C55.0365 52.7428 54.8754 52.9151 54.7637 53.1189C54.6519 53.3228 54.5931 53.5516 54.5926 53.7844V59.587C54.5927 59.8947 54.5325 60.1995 54.4153 60.4839C54.2982 60.7682 54.1265 61.0266 53.91 61.2442C53.6935 61.4619 53.4365 61.6345 53.1536 61.7523C52.8708 61.8701 52.5676 61.9307 52.2614 61.9307H49.5623C46.0523 61.9307 38.4935 59.7831 32.4706 50.9644C27.3387 43.451 25.0511 37.6282 23.7171 32.9071C23.6396 32.6304 23.6269 32.3394 23.68 32.0569C23.7332 31.7745 23.8507 31.5082 24.0235 31.2791C24.1962 31.05 24.4194 30.8642 24.6756 30.7364C24.9318 30.6086 25.214 30.5422 25.5 30.5424H31.4049C31.994 30.5419 32.5675 30.7325 33.0402 31.0859C33.5129 31.4394 33.8594 31.9367 34.0283 32.504C35.1264 36.1954 37.9705 44.1587 42.9978 48.1241C43.151 48.2455 43.3352 48.3212 43.5293 48.3424C43.7233 48.3636 43.9194 48.3294 44.095 48.2439C44.2707 48.1584 44.4188 48.0249 44.5226 47.8587C44.6263 47.6925 44.6814 47.5003 44.6816 47.3041V38.0089C44.6816 36.172 43.8895 34.3341 42.6533 32.8977C42.4752 32.6917 42.3597 32.4385 42.3208 32.1684C42.2818 31.8983 42.321 31.6226 42.4336 31.3742C42.5462 31.1259 42.7276 30.9153 42.9559 30.7676C43.1843 30.62 43.4502 30.5415 43.7217 30.5415H52.8258C53.2946 30.5415 53.7442 30.7287 54.0757 31.0618C54.4072 31.395 54.5935 31.8469 54.5935 32.3181V44.8388C54.5936 45.0201 54.6432 45.1978 54.737 45.3526C54.8309 45.5074 54.9653 45.6332 55.1255 45.7163C55.2858 45.7994 55.4657 45.8366 55.6456 45.8238C55.8254 45.811 55.9983 45.7486 56.1453 45.6436C57.8164 44.448 59.2476 42.6816 60.564 40.6962C62.2207 38.1988 64.2424 34.0704 65.2565 31.9278C65.4529 31.5128 65.7623 31.1622 66.1488 30.9167C66.5354 30.6712 66.9832 30.5409 67.4405 30.5409H73.8805C74.1494 30.5408 74.4139 30.6097 74.6489 30.7412C74.8839 30.8726 75.0816 31.0621 75.2233 31.2919C75.365 31.5216 75.4459 31.7839 75.4585 32.0539C75.4711 32.3239 75.4149 32.5926 75.2952 32.8347C73.6701 36.1109 70.5049 42.1212 67.5264 45.6474C67.1 46.1545 66.8913 46.8109 66.9459 47.4726C67.0006 48.1342 67.3142 48.7471 67.818 49.1765C69.7595 50.8439 72.7905 53.9265 76.0583 59.061C76.2386 59.3421 76.3402 59.6668 76.3524 60.0009C76.3647 60.3351 76.2872 60.6664 76.128 60.96C75.9689 61.2537 75.7339 61.4988 75.4479 61.6696C75.1619 61.8404 74.8354 61.9306 74.5027 61.9307Z" fill="#8A0000"/>
</g>
<defs>
<filter id="filter0_d_40_155" x="0" y="0" width="100" height="100.472" filterUnits="userSpaceOnUse" color-interpolation-filters="sRGB">
<feFlood flood-opacity="0" result="BackgroundImageFix"/>
<feColorMatrix in="SourceAlpha" type="matrix" values="0 0 0 0 0 0 0 0 0 0 0 0 0 0 0 0 0 0 127 0" result="hardAlpha"/>
<feOffset dy="4"/>
<feGaussianBlur stdDeviation="2"/>
<feComposite in2="hardAlpha" operator="out"/>
<feColorMatrix type="matrix" values="0 0 0 0 0 0 0 0 0 0 0 0 0 0 0 0 0 0 0.25 0"/>
<feBlend mode="normal" in2="BackgroundImageFix" result="effect1_dropShadow_40_155"/>
<feBlend mode="normal" in="SourceGraphic" in2="effect1_dropShadow_40_155" result="shape"/>
</filter>
</defs>
</svg>
